<svg id="th-pencil-svg" viewBox="0 0 264 145" fill="none" xmlns="http://www.w3.org/2000/svg">
    <g id="th">
        <path id="Subtract" fill-rule="evenodd" clip-rule="evenodd"
            d="M150.398 1.54846V0.691325L149.652 1.11323L115.791 20.2607L115.537 20.4043V20.6959V124.273V124.56L115.785 124.705L149.646 144.45L150.398 144.889V144.018V108.486L173.091 94.7714V109.705L173.5 109.5L174.091 109.178V93.885V92.9986L173.332 93.4571L149.64 107.776L149.398 107.921V108.203V143.148L116.537 123.985V20.9876L149.398 2.4056V68.7653V69.6378L150.151 69.1966L175.882 54.1176L206.438 72.2544V119.987L207.438 120.478V71.9697V71.6851L207.194 71.5398L176.139 53.1072L175.885 52.9566L175.631 53.1057L150.398 67.8927V1.54846ZM202.868 118.232V77.2228V76.3581L202.118 76.7895L177.912 90.7219L177.661 90.8661V91.1552V107.23L178.661 106.685V91.4444L201.868 78.0875V117.74L202.868 118.232ZM145.828 9.38347V8.52633L145.082 8.94824L120.361 22.9268L120.108 23.0704V23.362V85.8558V86.7262L120.859 86.2878L145.58 71.8723L145.828 71.7277V71.4404V9.38347ZM121.108 84.9855V23.6537L144.828 10.2406V71.1532L121.108 84.9855ZM174.091 60.1781V59.3056L173.338 59.7467L151.829 72.352L151.104 72.7768L151.823 73.2113L173.332 86.2105L174.091 86.669V85.7826V60.1781ZM178.417 59.7741L177.661 59.3258V60.2041V85.8818V86.7465L178.411 86.3151L200.374 73.6738L201.116 73.2471L200.38 72.8105L178.417 59.7741ZM173.091 84.8962L153.059 72.79L173.091 61.0507V84.8962ZM178.661 85.0171V61.0823L199.134 73.2338L178.661 85.0171ZM145.828 76.7312V75.8608L145.076 76.2993L122.607 89.4019L121.866 89.8338L122.607 90.2657L145.076 103.368L145.828 103.807V102.936V76.7312ZM150.157 76.3765L149.398 75.918V76.8044V102.863V103.75L150.157 103.291L171.717 90.2617L172.425 89.8338L171.717 89.4059L150.157 76.3765ZM144.828 102.066L123.851 89.8338L144.828 77.6016V102.066ZM170.491 89.8338L150.398 101.977V77.6908L170.491 89.8338ZM120.859 93.3799L120.108 92.9414V93.8118V119.102V119.946L120.848 119.541L143.21 107.291L143.986 106.866L143.222 106.42L120.859 93.3799ZM121.108 118.258V94.6822L141.954 106.839L121.108 118.258ZM145.828 110.772V109.928L145.088 110.333L122.725 122.583L121.95 123.008L122.714 123.454L145.076 136.494L145.828 136.933V136.062V110.772ZM144.828 135.192L123.981 123.036L144.828 111.616V135.192Z"
            fill="#E3B8AA" />
        <path id="t-whole (Stroke)" fill-rule="evenodd" clip-rule="evenodd"
            d="M66.2724 1V36.1834L96.8748 55.604L66.2724 72.8051V104.488L96.8492 123.615L63.9728 142.691L32.2327 123.81V88.7761L2 71.4681L32.2327 54.1602V20.6529L66.2724 1ZM32.2327 59.4266L11.1991 71.4681L32.2327 83.5096V59.4266ZM36.8031 83.612V59.3242L59.1939 71.4681L36.8031 83.612ZM36.8031 88.8114L61.702 75.3072V104.425L36.8031 118.582V88.8114ZM39.0628 122.555L61.702 136.022V109.682L39.0628 122.555ZM66.2724 109.879V136.072L87.9958 123.468L66.2724 109.879ZM66.2724 67.5621L87.9702 55.3662L66.2724 41.5965V67.5621ZM61.702 36.1595L36.8031 51.4061V23.2917L61.702 8.91627V36.1595ZM61.702 41.5187V67.629L39.0899 55.3651L61.702 41.5187Z"
            stroke="#E3B8AA" />
    </g>
    <g id="pencil-icon">
        <path id="Polygon 23" d="M176.376 107.003L188.599 83.6398L199.726 94.7551L176.376 107.003Z"
            fill="#0C0C0C" />
        <path id="Vector 4"
            d="M260.387 33.42L248.268 21.5847C251.053 18.7334 255.28 18.6834 257.054 19.7195L259.905 22.5043L262.404 25.293C263.839 27.3897 262.412 30.8365 260.387 33.42Z"
            fill="#DE7254" />
        <path id="Vector 2"
            d="M188.115 84.2498L247.241 23.708L258.63 34.5029L199.168 95.3884L176.461 107.246L188.115 84.2498Z"
            stroke="#DE7254" />
        <path id="Vector 3" d="M182.661 104.449L179.097 100.968L175.31 108.411L182.661 104.449Z"
            fill="#DE7254" />
        <rect id="Rectangle 7" x="247.574" y="23.6018" width="15.8018" height="85.1175"
            transform="rotate(44.3314 247.574 23.6018)" fill="#DE7254" />
    </g>
</svg>